<svg width="80" height="80" viewBox="0 0 80 80" fill="none" xmlns="http://www.w3.org/2000/svg">
<circle cx="40" cy="40" r="40" fill="white"/>
<path d="M57.3055 64C59.6558 64 61.6536 63.3 63.2988 61.9C64.944 60.5 65.7666 58.8 65.7666 56.8V49.6H57.3055V16L53.075 19.6L48.8445 16L44.6139 19.6L40.3834 16L36.1529 19.6L31.9223 16L27.6918 19.6L23.4612 16L19.2307 19.6L15.0002 16V56.8C15.0002 58.8 15.8228 60.5 17.468 61.9C19.1132 63.3 21.1109 64 23.4612 64H57.3055ZM23.4612 59.2C22.6621 59.2 21.9923 58.97 21.4517 58.51C20.9112 58.05 20.6409 57.48 20.6409 56.8V23.2H51.6648V49.6H26.2816V56.8C26.2816 57.48 26.0113 58.05 25.4707 58.51C24.9302 58.97 24.2603 59.2 23.4612 59.2ZM48.8445 32.8V28H31.9223V32.8H48.8445ZM48.8445 40V35.2H31.9223V40H48.8445ZM26.2816 32.8C27.0807 32.8 27.7505 32.57 28.2911 32.11C28.8317 31.65 29.102 31.08 29.102 30.4C29.102 29.72 28.8317 29.15 28.2911 28.69C27.7505 28.23 27.0807 28 26.2816 28C25.4825 28 24.8127 28.23 24.2721 28.69C23.7315 29.15 23.4612 29.72 23.4612 30.4C23.4612 31.08 23.7315 31.65 24.2721 32.11C24.8127 32.57 25.4825 32.8 26.2816 32.8ZM26.2816 40C27.0807 40 27.7505 39.77 28.2911 39.31C28.8317 38.85 29.102 38.28 29.102 37.6C29.102 36.92 28.8317 36.35 28.2911 35.89C27.7505 35.43 27.0807 35.2 26.2816 35.2C25.4825 35.2 24.8127 35.43 24.2721 35.89C23.7315 36.35 23.4612 36.92 23.4612 37.6C23.4612 38.28 23.7315 38.85 24.2721 39.31C24.8127 39.77 25.4825 40 26.2816 40ZM57.3055 59.2H31.9223V54.4H60.1259V56.8C60.1259 57.48 59.8556 58.05 59.315 58.51C58.7745 58.97 58.1046 59.2 57.3055 59.2Z" fill="black"/>
</svg>
