<svg width="80" height="80" viewBox="0 0 80 80" fill="none" xmlns="http://www.w3.org/2000/svg">
<circle cx="40" cy="40" r="40" fill="white"/>
<path d="M40.3832 40C36.893 40 33.9052 38.825 31.4198 36.475C28.9343 34.125 27.6916 31.3 27.6916 28C27.6916 24.7 28.9343 21.875 31.4198 19.525C33.9052 17.175 36.893 16 40.3832 16C43.8734 16 46.8612 17.175 49.3467 19.525C51.8321 21.875 53.0748 24.7 53.0748 28C53.0748 31.3 51.8321 34.125 49.3467 36.475C46.8612 38.825 43.8734 40 40.3832 40ZM15 64V55.6C15 53.9 15.4627 52.3375 16.3881 50.9125C17.3136 49.4875 18.5431 48.4 20.0766 47.65C23.3553 46.1 26.6869 44.9375 30.0713 44.1625C33.4557 43.3875 36.893 43 40.3832 43C43.8734 43 47.3107 43.3875 50.6951 44.1625C54.0796 44.9375 57.4111 46.1 60.6898 47.65C62.2234 48.4 63.4529 49.4875 64.3783 50.9125C65.3037 52.3375 65.7664 53.9 65.7664 55.6V64H15ZM21.3458 58H59.4206V55.6C59.4206 55.05 59.2752 54.55 58.9844 54.1C58.6935 53.65 58.3101 53.3 57.8342 53.05C54.9786 51.7 52.0965 50.6875 49.188 50.0125C46.2795 49.3375 43.3446 49 40.3832 49C37.4218 49 34.4869 49.3375 31.5784 50.0125C28.6699 50.6875 25.7879 51.7 22.9323 53.05C22.4563 53.3 22.0729 53.65 21.7821 54.1C21.4912 54.55 21.3458 55.05 21.3458 55.6V58ZM40.3832 34C42.1283 34 43.6222 33.4125 44.8649 32.2375C46.1077 31.0625 46.729 29.65 46.729 28C46.729 26.35 46.1077 24.9375 44.8649 23.7625C43.6222 22.5875 42.1283 22 40.3832 22C38.6381 22 37.1442 22.5875 35.9015 23.7625C34.6588 24.9375 34.0374 26.35 34.0374 28C34.0374 29.65 34.6588 31.0625 35.9015 32.2375C37.1442 33.4125 38.6381 34 40.3832 34Z" fill="black"/>
</svg>
